<svg xmlns="http://www.w3.org/2000/svg" viewBox="0 0 1200 760" role="img" aria-labelledby="title desc">
  <title id="title">Bay 4 scene overview</title>
  <desc id="desc">Illustrative field evidence view of a loading dock reverse path with a van, forklift, bay door, and exclusion zone markings.</desc>
  <defs>
    <linearGradient id="wall" x1="0" x2="1" y1="0" y2="1">
      <stop offset="0" stop-color="#d7dfda"/>
      <stop offset="1" stop-color="#9facaa"/>
    </linearGradient>
    <linearGradient id="floor" x1="0" x2="1" y1="0" y2="1">
      <stop offset="0" stop-color="#34423e"/>
      <stop offset="1" stop-color="#18211f"/>
    </linearGradient>
    <linearGradient id="van" x1="0" x2="1" y1="0" y2="1">
      <stop offset="0" stop-color="#eef3ef"/>
      <stop offset="1" stop-color="#b7c3bd"/>
    </linearGradient>
    <filter id="shadow" x="-20%" y="-20%" width="140%" height="140%">
      <feDropShadow dx="0" dy="20" stdDeviation="18" flood-color="#000" flood-opacity="0.32"/>
    </filter>
  </defs>
  <rect width="1200" height="760" fill="url(#wall)"/>
  <polygon points="0,510 1200,384 1200,760 0,760" fill="url(#floor)"/>
  <g opacity="0.65">
    <rect x="632" y="108" width="228" height="298" rx="8" fill="#26342f"/>
    <rect x="664" y="142" width="164" height="230" rx="6" fill="#42544e"/>
    <path d="M666 184 H828M666 226 H828M666 268 H828M666 310 H828M666 352 H828" stroke="#6e837a" stroke-width="5"/>
    <rect x="680" y="74" width="132" height="44" rx="8" fill="#101816"/>
    <text x="746" y="102" fill="#dce8e2" text-anchor="middle" font-family="Arial, sans-serif" font-size="24" font-weight="700">BAY 4</text>
  </g>
  <g opacity="0.3">
    <path d="M156 610 L1040 452" stroke="#e8eee9" stroke-width="10" stroke-linecap="round"/>
    <path d="M186 684 L1102 512" stroke="#e8eee9" stroke-width="8" stroke-linecap="round"/>
  </g>
  <g>
    <polygon points="710,452 1044,398 1110,500 768,572" fill="#d1a348" opacity="0.36"/>
    <polygon points="746,468 1004,426 1052,492 790,548" fill="#1d2724"/>
    <path d="M710 452 L1044 398 L1110 500 L768 572 Z" fill="none" stroke="#d1a348" stroke-width="9" stroke-linejoin="round" stroke-dasharray="22 14"/>
  </g>
  <g opacity="0.92">
    <path d="M278 620 C374 566 476 536 608 512" fill="none" stroke="#8fe8c7" stroke-width="18" stroke-linecap="round" stroke-dasharray="34 24"/>
    <path d="M290 646 C392 592 506 560 636 534" fill="none" stroke="#dffcf0" stroke-width="6" stroke-linecap="round" stroke-dasharray="24 24" opacity="0.88"/>
  </g>
  <g filter="url(#shadow)">
    <polygon points="332,408 594,482 504,568 238,488" fill="url(#van)"/>
    <polygon points="238,488 238,584 504,684 504,568" fill="#879893"/>
    <polygon points="504,568 504,684 594,592 594,482" fill="#6d807a"/>
    <polygon points="374,434 518,476 450,528 304,484" fill="#607c82" opacity="0.86"/>
    <rect x="292" y="550" width="138" height="24" rx="10" fill="#2d6c4d"/>
    <ellipse cx="310" cy="590" rx="42" ry="22" fill="#141918"/>
    <ellipse cx="482" cy="652" rx="48" ry="24" fill="#141918"/>
  </g>
  <g filter="url(#shadow)" transform="translate(826 448) rotate(-12)">
    <rect x="-58" y="-50" width="116" height="88" rx="12" fill="#c58b2b"/>
    <rect x="-40" y="-110" width="80" height="64" rx="10" fill="#2d251f"/>
    <rect x="-10" y="-164" width="20" height="120" rx="6" fill="#262a27"/>
    <rect x="-62" y="34" width="20" height="112" rx="5" fill="#262a27"/>
    <rect x="42" y="34" width="20" height="112" rx="5" fill="#262a27"/>
    <circle cx="-58" cy="40" r="24" fill="#141918"/>
    <circle cx="58" cy="40" r="24" fill="#141918"/>
  </g>
  <g>
    <circle cx="712" cy="506" r="20" fill="#ff8f6c"/>
    <circle cx="712" cy="506" r="74" fill="#ff8f6c" opacity="0.16"/>
    <path d="M654 514 C688 504 716 494 742 474" fill="none" stroke="#ff8f6c" stroke-width="10" stroke-linecap="round"/>
  </g>
  <g transform="translate(68 66)">
    <rect width="304" height="82" rx="16" fill="#101816" opacity="0.88"/>
    <text x="24" y="32" fill="#dce8e2" font-family="Arial, sans-serif" font-size="18" font-weight="700">Bay 4 reverse path</text>
    <text x="24" y="59" fill="#8ba29a" font-family="Arial, sans-serif" font-size="15">Forklift shown outside painted zone</text>
  </g>
</svg>
