<svg xmlns="http://www.w3.org/2000/svg" viewBox="0 0 1200 760" role="img" aria-labelledby="title desc">
  <title id="title">Dashcam tablet event still</title>
  <desc id="desc">Illustrative dashcam-style evidence frame showing a dock approach, in-cab tablet alert, speed, and seconds before impact.</desc>
  <defs>
    <linearGradient id="cab" x1="0" x2="1" y1="0" y2="1">
      <stop offset="0" stop-color="#111817"/>
      <stop offset="1" stop-color="#050807"/>
    </linearGradient>
    <linearGradient id="dock" x1="0" x2="1" y1="0" y2="1">
      <stop offset="0" stop-color="#9daaa5"/>
      <stop offset="1" stop-color="#36413e"/>
    </linearGradient>
  </defs>
  <rect width="1200" height="760" fill="url(#cab)"/>
  <path d="M126 118 H1074 L990 568 H210 Z" fill="url(#dock)"/>
  <path d="M180 210 H1016 L942 548 H262 Z" fill="#1c2825" opacity="0.36"/>
  <rect x="612" y="132" width="166" height="202" rx="8" fill="#26342f"/>
  <rect x="638" y="164" width="114" height="142" rx="5" fill="#465a54"/>
  <rect x="652" y="104" width="86" height="30" rx="6" fill="#111817"/>
  <text x="695" y="125" fill="#dbe8e1" text-anchor="middle" font-family="Arial, sans-serif" font-size="17" font-weight="700">BAY 4</text>
  <path d="M260 568 L512 340 L696 340 L940 568 Z" fill="#202d2a"/>
  <path d="M352 568 C426 470 502 414 612 374" fill="none" stroke="#8fe8c7" stroke-width="10" stroke-linecap="round" stroke-dasharray="26 20"/>
  <g transform="translate(800 368) rotate(-8)">
    <rect x="-54" y="-36" width="108" height="72" rx="10" fill="#c58b2b"/>
    <rect x="-26" y="-90" width="52" height="54" rx="8" fill="#27231f"/>
    <rect x="-9" y="-126" width="18" height="86" rx="5" fill="#242a27"/>
    <rect x="-50" y="28" width="16" height="92" rx="4" fill="#242a27"/>
    <rect x="34" y="28" width="16" height="92" rx="4" fill="#242a27"/>
  </g>
  <path d="M0 520 C230 482 372 502 516 592 C664 684 886 702 1200 628 L1200 760 L0 760 Z" fill="#070b0a"/>
  <rect x="118" y="574" width="964" height="102" rx="24" fill="#0b1110"/>
  <rect x="456" y="600" width="296" height="42" rx="16" fill="#151e1c"/>
  <rect x="842" y="514" width="246" height="146" rx="24" fill="#111817" stroke="#263b34" stroke-width="3"/>
  <rect x="868" y="540" width="194" height="82" rx="14" fill="#1f302b"/>
  <rect x="890" y="562" width="112" height="14" rx="7" fill="#7ef0c8"/>
  <rect x="890" y="590" width="76" height="10" rx="5" fill="#527b6d"/>
  <circle cx="1040" cy="600" r="12" fill="#7ef0c8"/>
  <circle cx="1040" cy="600" r="34" fill="#7ef0c8" opacity="0.16"/>
  <g transform="translate(54 44)">
    <rect width="312" height="86" rx="16" fill="#050807" opacity="0.86" stroke="#2e403b"/>
    <text x="22" y="33" fill="#dce8e2" font-family="Arial, sans-serif" font-size="18" font-weight="700">Dashcam metadata</text>
    <text x="22" y="62" fill="#8fe8c7" font-family="Arial, sans-serif" font-size="16">4.2 mph | tablet event T-00:08</text>
  </g>
  <g transform="translate(720 54)">
    <rect width="414" height="92" rx="18" fill="#050807" opacity="0.88" stroke="#365247"/>
    <text x="24" y="35" fill="#dce8e2" font-family="Arial, sans-serif" font-size="19" font-weight="700">Incoming dispatch alert</text>
    <text x="24" y="65" fill="#91a8a0" font-family="Arial, sans-serif" font-size="16">Driver interaction logged before impact</text>
  </g>
</svg>
